<svg xmlns="http://www.w3.org/2000/svg" version="1.1" xmlns:xlink="http://www.w3.org/1999/xlink" xmlns:svgjs="http://svgjs.dev/svgjs" width="1000" height="625" viewBox="0 0 1000 625"><g transform="matrix(1,0,0,1,0,0)"><svg viewBox="0 0 512 320" data-background-color="#ffffff" preserveAspectRatio="xMidYMid meet" height="625" width="1000" xmlns="http://www.w3.org/2000/svg" xmlns:xlink="http://www.w3.org/1999/xlink"><g id="tight-bounds" transform="matrix(1,0,0,1,0,0)"><svg viewBox="0 0 512 320" height="320" width="512"><g><svg></svg></g><g><svg viewBox="0 0 512 320" height="320" width="512"><g><path xmlns="http://www.w3.org/2000/svg" d="M96 320l0-320 320 0 0 320zM407.081 311.081l0-302.162-302.162 0 0 302.162z" fill="#ff0000" fill-rule="nonzero" stroke="none" stroke-width="1" stroke-linecap="butt" stroke-linejoin="miter" stroke-miterlimit="10" stroke-dasharray="" stroke-dashoffset="0" font-family="none" font-weight="none" font-size="none" text-anchor="none" style="mix-blend-mode: normal" data-fill-palette-color="tertiary"></path></g><g transform="matrix(1,0,0,1,196.25174825174824,80)"><svg viewBox="0 0 119.49650349650352 160" height="160" width="119.49650349650352"><g><svg viewBox="0 0 119.49650349650352 160" height="160" width="119.49650349650352"><g><svg viewBox="0 0 119.49650349650352 160" height="160" width="119.49650349650352"><g><svg viewBox="0 0 119.49650349650352 160" height="160" width="119.49650349650352"><g><svg viewBox="0 0 119.49650349650352 160" height="160" width="119.49650349650352"><g><svg viewBox="0 0 119.49650349650352 160" height="160" width="119.49650349650352"><g transform="matrix(1,0,0,1,0,0)"><svg width="119.49650349650352" viewBox="0.5 -35.400001525878906 26.700000762939453 35.75" height="160" data-palette-color="#ff0000"><path d="M16.15-35.4L27.2-35.4 27.2-12.55Q27.2-6.2 23.88-2.93 20.55 0.35 14.55 0.35L14.55 0.35Q8.1 0.35 4.3-3.2 0.5-6.75 0.5-13.55L0.5-13.55 11.45-13.55Q11.45-11.4 12.15-10.53 12.85-9.65 14.05-9.65L14.05-9.65Q15.05-9.65 15.6-10.3 16.15-10.95 16.15-12.55L16.15-12.55 16.15-35.4Z" opacity="1" transform="matrix(1,0,0,1,0,0)" fill="#ff0000" class="undefined-text-0" data-fill-palette-color="primary" id="text-0"></path></svg></g></svg></g></svg></g></svg></g><g></g></svg></g></svg></g></svg></g></svg></g><defs></defs></svg><rect width="512" height="320" fill="none" stroke="none" visibility="hidden"></rect></g></svg></g></svg>